<mxfile host="Electron" modified="2023-09-08T13:34:11.837Z" agent="Mozilla/5.0 (Windows NT 10.0; Win64; x64) AppleWebKit/537.36 (KHTML, like Gecko) draw.io/21.6.8 Chrome/114.0.5735.289 Electron/25.5.0 Safari/537.36" etag="hPjuCQxjt6D-eZnPa-Uf" version="21.6.8" type="device">
  <diagram name="Page-1" id="ULZV2iKENZ4FuVuRQl9H">
    <mxGraphModel dx="1434" dy="836" grid="1" gridSize="10" guides="1" tooltips="1" connect="1" arrows="1" fold="1" page="1" pageScale="1" pageWidth="1600" pageHeight="900" math="0" shadow="0">
      <root>
        <mxCell id="0" />
        <mxCell id="1" parent="0" />
        <mxCell id="EX0dmsbGzaKr8bu4OBs3-1" value="" style="ellipse;html=1;shape=startState;fillColor=#000000;strokeColor=#ff0000;" parent="1" vertex="1">
          <mxGeometry x="390" y="90" width="30" height="30" as="geometry" />
        </mxCell>
        <mxCell id="EX0dmsbGzaKr8bu4OBs3-2" value="" style="edgeStyle=orthogonalEdgeStyle;html=1;verticalAlign=bottom;endArrow=open;endSize=8;strokeColor=#ff0000;rounded=0;" parent="1" source="EX0dmsbGzaKr8bu4OBs3-1" edge="1">
          <mxGeometry relative="1" as="geometry">
            <mxPoint x="405" y="140" as="targetPoint" />
          </mxGeometry>
        </mxCell>
        <mxCell id="EX0dmsbGzaKr8bu4OBs3-3" value="" style="ellipse;html=1;shape=endState;fillColor=#000000;strokeColor=#ff0000;" parent="1" vertex="1">
          <mxGeometry x="430" y="830" width="30" height="30" as="geometry" />
        </mxCell>
        <mxCell id="EX0dmsbGzaKr8bu4OBs3-4" style="edgeStyle=orthogonalEdgeStyle;rounded=0;orthogonalLoop=1;jettySize=auto;html=1;exitX=0;exitY=0;exitDx=120;exitDy=65;exitPerimeter=0;entryX=0.155;entryY=0.487;entryDx=0;entryDy=0;dashed=1;endArrow=none;endFill=0;entryPerimeter=0;" parent="1" source="EX0dmsbGzaKr8bu4OBs3-5" target="EX0dmsbGzaKr8bu4OBs3-1" edge="1">
          <mxGeometry relative="1" as="geometry" />
        </mxCell>
        <mxCell id="EX0dmsbGzaKr8bu4OBs3-5" value="user clicks on &quot;Login&quot; button on website" style="shape=note;whiteSpace=wrap;html=1;backgroundOutline=1;darkOpacity=0.05;" parent="1" vertex="1">
          <mxGeometry x="120" y="40" width="120" height="100" as="geometry" />
        </mxCell>
        <mxCell id="EX0dmsbGzaKr8bu4OBs3-7" style="edgeStyle=orthogonalEdgeStyle;rounded=0;orthogonalLoop=1;jettySize=auto;html=1;exitX=1;exitY=0.5;exitDx=0;exitDy=0;entryX=0;entryY=0.5;entryDx=0;entryDy=0;" parent="1" source="i5aAPT9kodriFWr_7iku-11" target="EX0dmsbGzaKr8bu4OBs3-13" edge="1">
          <mxGeometry relative="1" as="geometry">
            <mxPoint x="549" y="310" as="targetPoint" />
            <mxPoint x="485" y="390" as="sourcePoint" />
          </mxGeometry>
        </mxCell>
        <mxCell id="EX0dmsbGzaKr8bu4OBs3-10" style="edgeStyle=orthogonalEdgeStyle;rounded=0;orthogonalLoop=1;jettySize=auto;html=1;exitX=0.5;exitY=1;exitDx=0;exitDy=0;entryX=0.5;entryY=0;entryDx=0;entryDy=0;" parent="1" source="i5aAPT9kodriFWr_7iku-10" target="EX0dmsbGzaKr8bu4OBs3-23" edge="1">
          <mxGeometry relative="1" as="geometry">
            <mxPoint x="222.5" y="430" as="sourcePoint" />
          </mxGeometry>
        </mxCell>
        <mxCell id="EX0dmsbGzaKr8bu4OBs3-12" value="" style="edgeStyle=orthogonalEdgeStyle;rounded=0;orthogonalLoop=1;jettySize=auto;html=1;" parent="1" source="EX0dmsbGzaKr8bu4OBs3-13" target="EX0dmsbGzaKr8bu4OBs3-17" edge="1">
          <mxGeometry relative="1" as="geometry" />
        </mxCell>
        <mxCell id="EX0dmsbGzaKr8bu4OBs3-13" value="&lt;font style=&quot;font-size: 14px;&quot;&gt;&lt;span style=&quot;color: rgb(209, 213, 219); font-family: Söhne, ui-sans-serif, system-ui, -apple-system, &amp;quot;Segoe UI&amp;quot;, Roboto, Ubuntu, Cantarell, &amp;quot;Noto Sans&amp;quot;, sans-serif, &amp;quot;Helvetica Neue&amp;quot;, Arial, &amp;quot;Apple Color Emoji&amp;quot;, &amp;quot;Segoe UI Emoji&amp;quot;, &amp;quot;Segoe UI Symbol&amp;quot;, &amp;quot;Noto Color Emoji&amp;quot;; font-style: normal; font-variant-ligatures: normal; font-variant-caps: normal; font-weight: 400; letter-spacing: normal; orphans: 2; text-align: left; text-indent: 0px; text-transform: none; widows: 2; word-spacing: 0px; -webkit-text-stroke-width: 0px; text-decoration-thickness: initial; text-decoration-style: initial; text-decoration-color: initial; float: none; display: inline !important;&quot;&gt;Redirect to Google Authentication&lt;/span&gt;&lt;br&gt;&lt;/font&gt;" style="rounded=1;whiteSpace=wrap;html=1;" parent="1" vertex="1">
          <mxGeometry x="550" y="275" width="120" height="70" as="geometry" />
        </mxCell>
        <mxCell id="EX0dmsbGzaKr8bu4OBs3-51" value="" style="edgeStyle=orthogonalEdgeStyle;rounded=0;orthogonalLoop=1;jettySize=auto;html=1;" parent="1" source="EX0dmsbGzaKr8bu4OBs3-17" target="EX0dmsbGzaKr8bu4OBs3-21" edge="1">
          <mxGeometry relative="1" as="geometry" />
        </mxCell>
        <mxCell id="EX0dmsbGzaKr8bu4OBs3-17" value="&lt;font style=&quot;font-size: 14px;&quot;&gt;&lt;span style=&quot;color: rgb(209, 213, 219); font-family: Söhne, ui-sans-serif, system-ui, -apple-system, &amp;quot;Segoe UI&amp;quot;, Roboto, Ubuntu, Cantarell, &amp;quot;Noto Sans&amp;quot;, sans-serif, &amp;quot;Helvetica Neue&amp;quot;, Arial, &amp;quot;Apple Color Emoji&amp;quot;, &amp;quot;Segoe UI Emoji&amp;quot;, &amp;quot;Segoe UI Symbol&amp;quot;, &amp;quot;Noto Color Emoji&amp;quot;; font-style: normal; font-variant-ligatures: normal; font-variant-caps: normal; font-weight: 400; letter-spacing: normal; orphans: 2; text-align: left; text-indent: 0px; text-transform: none; widows: 2; word-spacing: 0px; -webkit-text-stroke-width: 0px; text-decoration-thickness: initial; text-decoration-style: initial; text-decoration-color: initial; float: none; display: inline !important;&quot;&gt;Grant Permission&lt;/span&gt;&lt;br&gt;&lt;/font&gt;" style="rounded=1;whiteSpace=wrap;html=1;" parent="1" vertex="1">
          <mxGeometry x="550" y="360" width="120" height="70" as="geometry" />
        </mxCell>
        <mxCell id="EX0dmsbGzaKr8bu4OBs3-20" style="edgeStyle=orthogonalEdgeStyle;rounded=0;orthogonalLoop=1;jettySize=auto;html=1;exitX=1;exitY=0.5;exitDx=0;exitDy=0;entryX=0;entryY=0.5;entryDx=0;entryDy=0;" parent="1" source="EX0dmsbGzaKr8bu4OBs3-21" target="EX0dmsbGzaKr8bu4OBs3-39" edge="1">
          <mxGeometry relative="1" as="geometry">
            <Array as="points">
              <mxPoint x="690" y="555" />
              <mxPoint x="690" y="310" />
            </Array>
          </mxGeometry>
        </mxCell>
        <mxCell id="EX0dmsbGzaKr8bu4OBs3-21" value="&lt;font style=&quot;font-size: 14px;&quot;&gt;&lt;span style=&quot;color: rgb(209, 213, 219); font-family: Söhne, ui-sans-serif, system-ui, -apple-system, &amp;quot;Segoe UI&amp;quot;, Roboto, Ubuntu, Cantarell, &amp;quot;Noto Sans&amp;quot;, sans-serif, &amp;quot;Helvetica Neue&amp;quot;, Arial, &amp;quot;Apple Color Emoji&amp;quot;, &amp;quot;Segoe UI Emoji&amp;quot;, &amp;quot;Segoe UI Symbol&amp;quot;, &amp;quot;Noto Color Emoji&amp;quot;; font-style: normal; font-variant-ligatures: normal; font-variant-caps: normal; font-weight: 400; letter-spacing: normal; orphans: 2; text-align: left; text-indent: 0px; text-transform: none; widows: 2; word-spacing: 0px; -webkit-text-stroke-width: 0px; text-decoration-thickness: initial; text-decoration-style: initial; text-decoration-color: initial; float: none; display: inline !important;&quot;&gt;Submit Google Form&lt;/span&gt;&lt;br&gt;&lt;/font&gt;" style="rounded=1;whiteSpace=wrap;html=1;" parent="1" vertex="1">
          <mxGeometry x="550" y="520" width="120" height="70" as="geometry" />
        </mxCell>
        <mxCell id="EX0dmsbGzaKr8bu4OBs3-22" style="edgeStyle=orthogonalEdgeStyle;rounded=0;orthogonalLoop=1;jettySize=auto;html=1;exitX=0.5;exitY=1;exitDx=0;exitDy=0;entryX=0.5;entryY=0;entryDx=0;entryDy=0;" parent="1" source="EX0dmsbGzaKr8bu4OBs3-23" target="EX0dmsbGzaKr8bu4OBs3-35" edge="1">
          <mxGeometry relative="1" as="geometry" />
        </mxCell>
        <mxCell id="EX0dmsbGzaKr8bu4OBs3-23" value="&lt;font style=&quot;font-size: 14px;&quot;&gt;&lt;span style=&quot;color: rgb(209, 213, 219); font-family: Söhne, ui-sans-serif, system-ui, -apple-system, &amp;quot;Segoe UI&amp;quot;, Roboto, Ubuntu, Cantarell, &amp;quot;Noto Sans&amp;quot;, sans-serif, &amp;quot;Helvetica Neue&amp;quot;, Arial, &amp;quot;Apple Color Emoji&amp;quot;, &amp;quot;Segoe UI Emoji&amp;quot;, &amp;quot;Segoe UI Symbol&amp;quot;, &amp;quot;Noto Color Emoji&amp;quot;; font-style: normal; font-variant-ligatures: normal; font-variant-caps: normal; font-weight: 400; letter-spacing: normal; orphans: 2; text-align: left; text-indent: 0px; text-transform: none; widows: 2; word-spacing: 0px; -webkit-text-stroke-width: 0px; text-decoration-thickness: initial; text-decoration-style: initial; text-decoration-color: initial; float: none; display: inline !important;&quot;&gt;Input email,password&lt;/span&gt;&lt;br&gt;&lt;/font&gt;" style="rounded=1;whiteSpace=wrap;html=1;" parent="1" vertex="1">
          <mxGeometry x="345" y="520" width="120" height="70" as="geometry" />
        </mxCell>
        <mxCell id="EX0dmsbGzaKr8bu4OBs3-32" value="user redirected to user dashboard" style="shape=note;whiteSpace=wrap;html=1;backgroundOutline=1;darkOpacity=0.05;" parent="1" vertex="1">
          <mxGeometry x="160" y="780" width="120" height="100" as="geometry" />
        </mxCell>
        <mxCell id="EX0dmsbGzaKr8bu4OBs3-33" style="edgeStyle=orthogonalEdgeStyle;rounded=0;orthogonalLoop=1;jettySize=auto;html=1;exitX=0;exitY=0;exitDx=120;exitDy=65;exitPerimeter=0;entryX=0.155;entryY=0.487;entryDx=0;entryDy=0;dashed=1;endArrow=none;endFill=0;entryPerimeter=0;" parent="1" source="EX0dmsbGzaKr8bu4OBs3-32" edge="1">
          <mxGeometry relative="1" as="geometry">
            <mxPoint x="435" y="845" as="targetPoint" />
          </mxGeometry>
        </mxCell>
        <mxCell id="EX0dmsbGzaKr8bu4OBs3-34" value="User" style="swimlane;whiteSpace=wrap;html=1;" parent="1" vertex="1">
          <mxGeometry width="700" height="900" as="geometry" />
        </mxCell>
        <mxCell id="EX0dmsbGzaKr8bu4OBs3-35" value="&lt;font style=&quot;font-size: 14px;&quot;&gt;&lt;span style=&quot;color: rgb(209, 213, 219); font-family: Söhne, ui-sans-serif, system-ui, -apple-system, &amp;quot;Segoe UI&amp;quot;, Roboto, Ubuntu, Cantarell, &amp;quot;Noto Sans&amp;quot;, sans-serif, &amp;quot;Helvetica Neue&amp;quot;, Arial, &amp;quot;Apple Color Emoji&amp;quot;, &amp;quot;Segoe UI Emoji&amp;quot;, &amp;quot;Segoe UI Symbol&amp;quot;, &amp;quot;Noto Color Emoji&amp;quot;; font-style: normal; font-variant-ligatures: normal; font-variant-caps: normal; font-weight: 400; letter-spacing: normal; orphans: 2; text-align: left; text-indent: 0px; text-transform: none; widows: 2; word-spacing: 0px; -webkit-text-stroke-width: 0px; text-decoration-thickness: initial; text-decoration-style: initial; text-decoration-color: initial; float: none; display: inline !important;&quot;&gt;Submit Form&lt;/span&gt;&lt;br&gt;&lt;/font&gt;" style="rounded=1;whiteSpace=wrap;html=1;" parent="EX0dmsbGzaKr8bu4OBs3-34" vertex="1">
          <mxGeometry x="245" y="650" width="120" height="70" as="geometry" />
        </mxCell>
        <mxCell id="EX0dmsbGzaKr8bu4OBs3-26" value="&lt;font style=&quot;font-size: 14px;&quot;&gt;&lt;span style=&quot;color: rgb(209, 213, 219); font-family: Söhne, ui-sans-serif, system-ui, -apple-system, &amp;quot;Segoe UI&amp;quot;, Roboto, Ubuntu, Cantarell, &amp;quot;Noto Sans&amp;quot;, sans-serif, &amp;quot;Helvetica Neue&amp;quot;, Arial, &amp;quot;Apple Color Emoji&amp;quot;, &amp;quot;Segoe UI Emoji&amp;quot;, &amp;quot;Segoe UI Symbol&amp;quot;, &amp;quot;Noto Color Emoji&amp;quot;; font-style: normal; font-variant-ligatures: normal; font-variant-caps: normal; font-weight: 400; letter-spacing: normal; orphans: 2; text-align: left; text-indent: 0px; text-transform: none; widows: 2; word-spacing: 0px; -webkit-text-stroke-width: 0px; text-decoration-thickness: initial; text-decoration-style: initial; text-decoration-color: initial; float: none; display: inline !important;&quot;&gt;Error Message&lt;/span&gt;&lt;br&gt;&lt;/font&gt;" style="rounded=1;whiteSpace=wrap;html=1;" parent="EX0dmsbGzaKr8bu4OBs3-34" vertex="1">
          <mxGeometry x="550" y="700" width="120" height="70" as="geometry" />
        </mxCell>
        <mxCell id="i5aAPT9kodriFWr_7iku-5" style="edgeStyle=orthogonalEdgeStyle;rounded=0;orthogonalLoop=1;jettySize=auto;html=1;entryX=0.476;entryY=0;entryDx=0;entryDy=0;entryPerimeter=0;exitX=1;exitY=0.5;exitDx=0;exitDy=0;" edge="1" parent="EX0dmsbGzaKr8bu4OBs3-34" source="i5aAPT9kodriFWr_7iku-2">
          <mxGeometry relative="1" as="geometry">
            <mxPoint x="429.98" y="350" as="targetPoint" />
          </mxGeometry>
        </mxCell>
        <mxCell id="i5aAPT9kodriFWr_7iku-6" style="edgeStyle=orthogonalEdgeStyle;rounded=0;orthogonalLoop=1;jettySize=auto;html=1;entryX=0.5;entryY=0;entryDx=0;entryDy=0;exitX=0;exitY=0.5;exitDx=0;exitDy=0;" edge="1" parent="EX0dmsbGzaKr8bu4OBs3-34" source="i5aAPT9kodriFWr_7iku-2" target="i5aAPT9kodriFWr_7iku-10">
          <mxGeometry relative="1" as="geometry">
            <mxPoint x="222.5" y="350" as="targetPoint" />
          </mxGeometry>
        </mxCell>
        <mxCell id="i5aAPT9kodriFWr_7iku-2" value="Google/Email" style="rhombus;whiteSpace=wrap;html=1;" vertex="1" parent="EX0dmsbGzaKr8bu4OBs3-34">
          <mxGeometry x="275" y="250" width="105" height="80" as="geometry" />
        </mxCell>
        <mxCell id="i5aAPT9kodriFWr_7iku-3" style="edgeStyle=orthogonalEdgeStyle;rounded=0;orthogonalLoop=1;jettySize=auto;html=1;entryX=0.5;entryY=0;entryDx=0;entryDy=0;" edge="1" parent="EX0dmsbGzaKr8bu4OBs3-34" source="EX0dmsbGzaKr8bu4OBs3-15" target="i5aAPT9kodriFWr_7iku-2">
          <mxGeometry relative="1" as="geometry" />
        </mxCell>
        <mxCell id="EX0dmsbGzaKr8bu4OBs3-15" value="&lt;font style=&quot;font-size: 14px;&quot;&gt;&lt;span style=&quot;color: rgb(209, 213, 219); font-family: Söhne, ui-sans-serif, system-ui, -apple-system, &amp;quot;Segoe UI&amp;quot;, Roboto, Ubuntu, Cantarell, &amp;quot;Noto Sans&amp;quot;, sans-serif, &amp;quot;Helvetica Neue&amp;quot;, Arial, &amp;quot;Apple Color Emoji&amp;quot;, &amp;quot;Segoe UI Emoji&amp;quot;, &amp;quot;Segoe UI Symbol&amp;quot;, &amp;quot;Noto Color Emoji&amp;quot;; font-style: normal; font-variant-ligatures: normal; font-variant-caps: normal; font-weight: 400; letter-spacing: normal; orphans: 2; text-align: left; text-indent: 0px; text-transform: none; widows: 2; word-spacing: 0px; -webkit-text-stroke-width: 0px; text-decoration-thickness: initial; text-decoration-style: initial; text-decoration-color: initial; float: none; display: inline !important;&quot;&gt;Choose Login method&lt;/span&gt;&lt;br&gt;&lt;/font&gt;" style="rounded=1;whiteSpace=wrap;html=1;" parent="EX0dmsbGzaKr8bu4OBs3-34" vertex="1">
          <mxGeometry x="350" y="140" width="120" height="70" as="geometry" />
        </mxCell>
        <mxCell id="EX0dmsbGzaKr8bu4OBs3-25" style="edgeStyle=orthogonalEdgeStyle;rounded=0;orthogonalLoop=1;jettySize=auto;html=1;exitX=0;exitY=0.5;exitDx=0;exitDy=0;entryX=1;entryY=0.5;entryDx=0;entryDy=0;" parent="EX0dmsbGzaKr8bu4OBs3-34" source="EX0dmsbGzaKr8bu4OBs3-26" target="EX0dmsbGzaKr8bu4OBs3-15" edge="1">
          <mxGeometry relative="1" as="geometry" />
        </mxCell>
        <mxCell id="i5aAPT9kodriFWr_7iku-7" value="Email" style="text;html=1;strokeColor=none;fillColor=none;align=center;verticalAlign=middle;whiteSpace=wrap;rounded=0;fontSize=10;" vertex="1" parent="EX0dmsbGzaKr8bu4OBs3-34">
          <mxGeometry x="210" y="270" width="60" height="30" as="geometry" />
        </mxCell>
        <mxCell id="i5aAPT9kodriFWr_7iku-8" value="Google" style="text;html=1;strokeColor=none;fillColor=none;align=center;verticalAlign=middle;whiteSpace=wrap;rounded=0;fontSize=10;" vertex="1" parent="EX0dmsbGzaKr8bu4OBs3-34">
          <mxGeometry x="380" y="270" width="60" height="30" as="geometry" />
        </mxCell>
        <mxCell id="i5aAPT9kodriFWr_7iku-10" value="&lt;font style=&quot;font-size: 14px;&quot;&gt;&lt;span style=&quot;color: rgb(209, 213, 219); font-family: Söhne, ui-sans-serif, system-ui, -apple-system, &amp;quot;Segoe UI&amp;quot;, Roboto, Ubuntu, Cantarell, &amp;quot;Noto Sans&amp;quot;, sans-serif, &amp;quot;Helvetica Neue&amp;quot;, Arial, &amp;quot;Apple Color Emoji&amp;quot;, &amp;quot;Segoe UI Emoji&amp;quot;, &amp;quot;Segoe UI Symbol&amp;quot;, &amp;quot;Noto Color Emoji&amp;quot;; font-style: normal; font-variant-ligatures: normal; font-variant-caps: normal; font-weight: 400; letter-spacing: normal; orphans: 2; text-align: left; text-indent: 0px; text-transform: none; widows: 2; word-spacing: 0px; -webkit-text-stroke-width: 0px; text-decoration-thickness: initial; text-decoration-style: initial; text-decoration-color: initial; float: none; display: inline !important;&quot;&gt;Selects Email&lt;/span&gt;&lt;br&gt;&lt;/font&gt;" style="rounded=1;whiteSpace=wrap;html=1;" vertex="1" parent="EX0dmsbGzaKr8bu4OBs3-34">
          <mxGeometry x="155" y="350" width="120" height="40" as="geometry" />
        </mxCell>
        <mxCell id="i5aAPT9kodriFWr_7iku-11" value="&lt;font style=&quot;font-size: 14px;&quot;&gt;&lt;span style=&quot;color: rgb(209, 213, 219); font-family: Söhne, ui-sans-serif, system-ui, -apple-system, &amp;quot;Segoe UI&amp;quot;, Roboto, Ubuntu, Cantarell, &amp;quot;Noto Sans&amp;quot;, sans-serif, &amp;quot;Helvetica Neue&amp;quot;, Arial, &amp;quot;Apple Color Emoji&amp;quot;, &amp;quot;Segoe UI Emoji&amp;quot;, &amp;quot;Segoe UI Symbol&amp;quot;, &amp;quot;Noto Color Emoji&amp;quot;; font-style: normal; font-variant-ligatures: normal; font-variant-caps: normal; font-weight: 400; letter-spacing: normal; orphans: 2; text-align: left; text-indent: 0px; text-transform: none; widows: 2; word-spacing: 0px; -webkit-text-stroke-width: 0px; text-decoration-thickness: initial; text-decoration-style: initial; text-decoration-color: initial; float: none; display: inline !important;&quot;&gt;Selects Google&lt;/span&gt;&lt;br&gt;&lt;/font&gt;" style="rounded=1;whiteSpace=wrap;html=1;" vertex="1" parent="EX0dmsbGzaKr8bu4OBs3-34">
          <mxGeometry x="365" y="350" width="120" height="40" as="geometry" />
        </mxCell>
        <mxCell id="EX0dmsbGzaKr8bu4OBs3-36" value="System" style="swimlane;whiteSpace=wrap;html=1;" parent="1" vertex="1">
          <mxGeometry x="700" width="900" height="900" as="geometry" />
        </mxCell>
        <mxCell id="EX0dmsbGzaKr8bu4OBs3-38" value="User exists" style="rhombus;whiteSpace=wrap;html=1;" parent="EX0dmsbGzaKr8bu4OBs3-36" vertex="1">
          <mxGeometry x="77.5" y="380" width="105" height="80" as="geometry" />
        </mxCell>
        <mxCell id="EX0dmsbGzaKr8bu4OBs3-39" value="&lt;font style=&quot;font-size: 14px;&quot;&gt;&lt;span style=&quot;color: rgb(209, 213, 219); font-family: Söhne, ui-sans-serif, system-ui, -apple-system, &amp;quot;Segoe UI&amp;quot;, Roboto, Ubuntu, Cantarell, &amp;quot;Noto Sans&amp;quot;, sans-serif, &amp;quot;Helvetica Neue&amp;quot;, Arial, &amp;quot;Apple Color Emoji&amp;quot;, &amp;quot;Segoe UI Emoji&amp;quot;, &amp;quot;Segoe UI Symbol&amp;quot;, &amp;quot;Noto Color Emoji&amp;quot;; font-style: normal; font-variant-ligatures: normal; font-variant-caps: normal; font-weight: 400; letter-spacing: normal; orphans: 2; text-align: left; text-indent: 0px; text-transform: none; widows: 2; word-spacing: 0px; -webkit-text-stroke-width: 0px; text-decoration-thickness: initial; text-decoration-style: initial; text-decoration-color: initial; float: none; display: inline !important;&quot;&gt;Retrieve Authentication Token &amp;amp; User Details&lt;/span&gt;&lt;br&gt;&lt;/font&gt;" style="rounded=1;whiteSpace=wrap;html=1;" parent="EX0dmsbGzaKr8bu4OBs3-36" vertex="1">
          <mxGeometry x="70" y="275" width="120" height="70" as="geometry" />
        </mxCell>
        <mxCell id="EX0dmsbGzaKr8bu4OBs3-40" style="edgeStyle=orthogonalEdgeStyle;rounded=0;orthogonalLoop=1;jettySize=auto;html=1;exitX=0.5;exitY=1;exitDx=0;exitDy=0;entryX=0.5;entryY=0;entryDx=0;entryDy=0;" parent="EX0dmsbGzaKr8bu4OBs3-36" source="EX0dmsbGzaKr8bu4OBs3-39" target="EX0dmsbGzaKr8bu4OBs3-38" edge="1">
          <mxGeometry relative="1" as="geometry" />
        </mxCell>
        <mxCell id="EX0dmsbGzaKr8bu4OBs3-42" style="edgeStyle=orthogonalEdgeStyle;rounded=0;orthogonalLoop=1;jettySize=auto;html=1;exitX=0.5;exitY=1;exitDx=0;exitDy=0;" parent="EX0dmsbGzaKr8bu4OBs3-36" source="EX0dmsbGzaKr8bu4OBs3-43" target="EX0dmsbGzaKr8bu4OBs3-45" edge="1">
          <mxGeometry relative="1" as="geometry" />
        </mxCell>
        <mxCell id="EX0dmsbGzaKr8bu4OBs3-43" value="&lt;font style=&quot;font-size: 14px;&quot;&gt;&lt;span style=&quot;color: rgb(209, 213, 219); font-family: Söhne, ui-sans-serif, system-ui, -apple-system, &amp;quot;Segoe UI&amp;quot;, Roboto, Ubuntu, Cantarell, &amp;quot;Noto Sans&amp;quot;, sans-serif, &amp;quot;Helvetica Neue&amp;quot;, Arial, &amp;quot;Apple Color Emoji&amp;quot;, &amp;quot;Segoe UI Emoji&amp;quot;, &amp;quot;Segoe UI Symbol&amp;quot;, &amp;quot;Noto Color Emoji&amp;quot;; font-style: normal; font-variant-ligatures: normal; font-variant-caps: normal; font-weight: 400; letter-spacing: normal; orphans: 2; text-align: left; text-indent: 0px; text-transform: none; widows: 2; word-spacing: 0px; -webkit-text-stroke-width: 0px; text-decoration-thickness: initial; text-decoration-style: initial; text-decoration-color: initial; float: none; display: inline !important;&quot;&gt;Validate user input&lt;/span&gt;&lt;br&gt;&lt;/font&gt;" style="rounded=1;whiteSpace=wrap;html=1;" parent="EX0dmsbGzaKr8bu4OBs3-36" vertex="1">
          <mxGeometry x="260" y="275" width="120" height="70" as="geometry" />
        </mxCell>
        <mxCell id="EX0dmsbGzaKr8bu4OBs3-44" style="edgeStyle=orthogonalEdgeStyle;rounded=0;orthogonalLoop=1;jettySize=auto;html=1;exitX=0;exitY=0.5;exitDx=0;exitDy=0;entryX=1;entryY=0.5;entryDx=0;entryDy=0;" parent="EX0dmsbGzaKr8bu4OBs3-36" source="EX0dmsbGzaKr8bu4OBs3-45" target="EX0dmsbGzaKr8bu4OBs3-38" edge="1">
          <mxGeometry relative="1" as="geometry" />
        </mxCell>
        <mxCell id="EX0dmsbGzaKr8bu4OBs3-45" value="input valid" style="rhombus;whiteSpace=wrap;html=1;" parent="EX0dmsbGzaKr8bu4OBs3-36" vertex="1">
          <mxGeometry x="267.5" y="380" width="105" height="80" as="geometry" />
        </mxCell>
        <mxCell id="i5aAPT9kodriFWr_7iku-9" value="No" style="text;html=1;strokeColor=none;fillColor=none;align=center;verticalAlign=middle;whiteSpace=wrap;rounded=0;fontSize=10;" vertex="1" parent="EX0dmsbGzaKr8bu4OBs3-36">
          <mxGeometry x="17" y="400" width="60" height="30" as="geometry" />
        </mxCell>
        <mxCell id="EX0dmsbGzaKr8bu4OBs3-47" style="edgeStyle=orthogonalEdgeStyle;rounded=0;orthogonalLoop=1;jettySize=auto;html=1;exitX=1;exitY=0.5;exitDx=0;exitDy=0;entryX=1;entryY=0.5;entryDx=0;entryDy=0;" parent="1" source="EX0dmsbGzaKr8bu4OBs3-35" target="EX0dmsbGzaKr8bu4OBs3-43" edge="1">
          <mxGeometry relative="1" as="geometry" />
        </mxCell>
        <mxCell id="EX0dmsbGzaKr8bu4OBs3-52" style="edgeStyle=orthogonalEdgeStyle;rounded=0;orthogonalLoop=1;jettySize=auto;html=1;entryX=1;entryY=0.5;entryDx=0;entryDy=0;" parent="1" source="EX0dmsbGzaKr8bu4OBs3-38" target="EX0dmsbGzaKr8bu4OBs3-3" edge="1">
          <mxGeometry relative="1" as="geometry">
            <Array as="points">
              <mxPoint x="830" y="845" />
            </Array>
          </mxGeometry>
        </mxCell>
        <mxCell id="EX0dmsbGzaKr8bu4OBs3-55" style="edgeStyle=orthogonalEdgeStyle;rounded=0;orthogonalLoop=1;jettySize=auto;html=1;exitX=0;exitY=0.5;exitDx=0;exitDy=0;entryX=1;entryY=0.75;entryDx=0;entryDy=0;" parent="1" source="EX0dmsbGzaKr8bu4OBs3-38" target="EX0dmsbGzaKr8bu4OBs3-26" edge="1">
          <mxGeometry relative="1" as="geometry">
            <Array as="points">
              <mxPoint x="740" y="420" />
              <mxPoint x="740" y="753" />
            </Array>
          </mxGeometry>
        </mxCell>
      </root>
    </mxGraphModel>
  </diagram>
</mxfile>
